<svg xmlns="http://www.w3.org/2000/svg" xmlns:xlink="http://www.w3.org/1999/xlink" width="1080" zoomAndPan="magnify" viewBox="0 0 810 809.999993" height="1080" preserveAspectRatio="xMidYMid meet" version="1.0"><defs><clipPath id="2ed6576fd2"><path d="M 123.449219 123.449219 L 686.699219 123.449219 L 686.699219 686.699219 L 123.449219 686.699219 Z M 123.449219 123.449219 " clip-rule="nonzero"/></clipPath></defs><g clip-path="url(#2ed6576fd2)"><path fill="#d9d9d9" d="M 604.074219 205.910156 C 550.898438 152.734375 480.195312 123.449219 404.992188 123.449219 C 329.789062 123.449219 259.085938 152.734375 205.910156 205.910156 C 152.734375 259.085938 123.449219 329.789062 123.449219 404.992188 C 123.449219 480.195312 152.734375 550.898438 205.910156 604.074219 C 259.085938 657.25 329.789062 686.535156 404.992188 686.535156 C 480.195312 686.535156 550.898438 657.25 604.074219 604.074219 C 657.25 550.898438 686.535156 480.195312 686.535156 404.992188 C 686.535156 329.789062 657.25 259.085938 604.074219 205.910156 Z M 218.6875 218.6875 C 268.449219 168.921875 334.617188 141.515625 404.992188 141.515625 C 475.371094 141.515625 541.535156 168.921875 591.296875 218.6875 C 641.0625 268.449219 668.46875 334.613281 668.46875 404.992188 C 668.46875 463.496094 649.511719 519.078125 614.535156 564.761719 C 586.699219 525.835938 542.246094 502.839844 493.972656 502.839844 L 316.011719 502.839844 C 267.738281 502.839844 223.285156 525.835938 195.449219 564.761719 C 160.46875 519.078125 141.515625 463.496094 141.515625 404.992188 C 141.515625 334.613281 168.921875 268.449219 218.6875 218.6875 Z M 404.992188 488 C 477.328125 488 536.179688 429.148438 536.179688 356.8125 C 536.179688 284.476562 477.328125 225.625 404.992188 225.625 C 332.65625 225.625 273.804688 284.476562 273.804688 356.8125 C 273.804688 429.148438 332.65625 488 404.992188 488 Z M 404.992188 488 " fill-opacity="1" fill-rule="nonzero"/></g></svg>